<svg width="54" height="40" viewBox="0 0 54 40" fill="none" xmlns="http://www.w3.org/2000/svg">
<path fill-rule="evenodd" clip-rule="evenodd" d="M13.5158 14.9992C14.86 14.9992 16.1492 14.4724 17.0997 13.5347C18.0502 12.597 18.5842 11.3251 18.5842 9.99901C18.5842 8.67289 18.0502 7.40108 17.0997 6.46336C16.1492 5.52565 14.86 4.99885 13.5158 4.99885C12.1716 4.99885 10.8824 5.52565 9.93188 6.46336C8.98137 7.40108 8.44738 8.67289 8.44738 9.99901C8.44738 11.3251 8.98137 12.597 9.93188 13.5347C10.8824 14.4724 12.1716 14.9992 13.5158 14.9992ZM23.6527 9.99901C23.6567 12.6382 22.5995 15.1713 20.713 17.0426C22.6488 18.243 24.2441 19.9086 25.3493 21.8833C26.4544 23.858 27.0333 26.0772 27.0316 28.333V33.3331C27.0316 35.1013 26.3196 36.797 25.0523 38.0473C23.7849 39.2976 22.066 40 20.2737 40H6.7579C4.96559 40 3.2467 39.2976 1.97934 38.0473C0.711991 36.797 0 35.1013 0 33.3331V28.333C0 23.5761 2.52408 19.4027 6.31864 17.0426C5.146 15.8762 4.28268 14.4428 3.80499 12.8691C3.32731 11.2954 3.24996 9.62976 3.57979 8.01953C3.90962 6.40931 4.63647 4.90404 5.6961 3.63678C6.75572 2.36952 8.11548 1.37931 9.65519 0.753657C11.1949 0.128007 12.8671 -0.113805 14.5241 0.0495938C16.181 0.212993 17.7716 0.776571 19.1553 1.69051C20.539 2.60445 21.6732 3.84061 22.4576 5.28971C23.242 6.73882 23.6524 8.35624 23.6527 9.99901ZM53.3198 10.9324C53.7675 10.4584 54.0112 9.8316 53.9996 9.18391C53.988 8.53622 53.7221 7.91825 53.2577 7.46019C52.7934 7.00213 52.167 6.73975 51.5105 6.72832C50.854 6.7169 50.2186 6.95731 49.7382 7.39893L40.5474 16.4659L36.4251 12.3991C36.1931 12.1535 35.9133 11.9564 35.6024 11.8198C35.2916 11.6832 34.956 11.6097 34.6157 11.6038C34.2755 11.5978 33.9375 11.6596 33.6219 11.7853C33.3064 11.9111 33.0197 12.0982 32.7791 12.3356C32.5384 12.573 32.3487 12.8558 32.2213 13.1671C32.0938 13.4784 32.0312 13.8119 32.0372 14.1476C32.0432 14.4832 32.1177 14.8143 32.2562 15.121C32.3947 15.4277 32.5944 15.7037 32.8434 15.9325L38.7566 21.7661C39.2317 22.2342 39.8758 22.4972 40.5474 22.4972C41.219 22.4972 41.8631 22.2342 42.3383 21.7661L53.3198 10.9324Z" fill="#182850"/>
</svg>
