<svg width="40" height="40" viewBox="0 0 40 40" fill="none" xmlns="http://www.w3.org/2000/svg">
<path d="M22.2222 11.1111V2.22223C22.2222 1.5926 22.4356 1.06445 22.8622 0.637785C23.2889 0.211119 23.8163 -0.00147379 24.4444 7.68935e-06H37.7778C38.4074 7.68935e-06 38.9355 0.213341 39.3622 0.640008C39.7889 1.06667 40.0015 1.59408 40 2.22223V11.1111C40 11.7407 39.7867 12.2689 39.36 12.6956C38.9333 13.1222 38.4059 13.3348 37.7778 13.3333H24.4444C23.8148 13.3333 23.2867 13.12 22.86 12.6933C22.4333 12.2667 22.2207 11.7393 22.2222 11.1111ZM7.68935e-06 20V2.22223C7.68935e-06 1.5926 0.213341 1.06445 0.640008 0.637785C1.06667 0.211119 1.59408 -0.00147379 2.22223 7.68935e-06H15.5556C16.1852 7.68935e-06 16.7133 0.213341 17.14 0.640008C17.5667 1.06667 17.7793 1.59408 17.7778 2.22223V20C17.7778 20.6296 17.5644 21.1578 17.1378 21.5844C16.7111 22.0111 16.1837 22.2237 15.5556 22.2222H2.22223C1.5926 22.2222 1.06445 22.0089 0.637785 21.5822C0.211119 21.1556 -0.00147379 20.6281 7.68935e-06 20ZM22.2222 37.7778V20C22.2222 19.3704 22.4356 18.8422 22.8622 18.4156C23.2889 17.9889 23.8163 17.7763 24.4444 17.7778H37.7778C38.4074 17.7778 38.9355 17.9911 39.3622 18.4178C39.7889 18.8444 40.0015 19.3719 40 20V37.7778C40 38.4074 39.7867 38.9355 39.36 39.3622C38.9333 39.7889 38.4059 40.0015 37.7778 40H24.4444C23.8148 40 23.2867 39.7867 22.86 39.36C22.4333 38.9333 22.2207 38.4059 22.2222 37.7778ZM7.68935e-06 37.7778V28.8889C7.68935e-06 28.2593 0.213341 27.7311 0.640008 27.3044C1.06667 26.8778 1.59408 26.6652 2.22223 26.6667H15.5556C16.1852 26.6667 16.7133 26.88 17.14 27.3067C17.5667 27.7333 17.7793 28.2607 17.7778 28.8889V37.7778C17.7778 38.4074 17.5644 38.9355 17.1378 39.3622C16.7111 39.7889 16.1837 40.0015 15.5556 40H2.22223C1.5926 40 1.06445 39.7867 0.637785 39.36C0.211119 38.9333 -0.00147379 38.4059 7.68935e-06 37.7778Z" fill="#182850"/>
</svg>
