<svg width="29" height="34" viewBox="0 0 29 34" fill="none" xmlns="http://www.w3.org/2000/svg">
<path d="M29 7.28572C29 10.4105 26.4706 12.9524 23.3611 12.9524C20.2517 12.9524 17.7222 10.4105 17.7222 7.28572C17.7222 4.16096 20.2517 1.61906 23.3611 1.61906C26.4706 1.61906 29 4.16096 29 7.28572ZM25.7778 15.8505C24.9722 16.061 24.1667 16.1905 23.3611 16.1905C21.0123 16.1862 18.7609 15.2466 17.1001 13.5776C15.4392 11.9086 14.5043 9.6461 14.5 7.28572C14.5 4.90572 15.4344 2.75239 16.9167 1.14953C16.6243 0.78936 16.2556 0.499274 15.8376 0.300413C15.4195 0.101552 14.9625 -0.00107586 14.5 8.50434e-06C12.7278 8.50434e-06 11.2778 1.45715 11.2778 3.2381V3.70763C6.49278 5.13239 3.22222 9.55239 3.22222 14.5714V24.2857L0 27.5238V29.1429H29V27.5238L25.7778 24.2857V15.8505ZM14.5 34C16.2883 34 17.7222 32.559 17.7222 30.7619H11.2778C11.2778 31.6207 11.6173 32.4443 12.2215 33.0516C12.8258 33.6588 13.6454 34 14.5 34Z" fill="#182850"/>
</svg>
