<svg width="32" height="32" viewBox="0 0 32 32" fill="none" xmlns="http://www.w3.org/2000/svg">
<path fill-rule="evenodd" clip-rule="evenodd" d="M16 30.4C23.9528 30.4 30.4 23.9528 30.4 16C30.4 8.0472 23.9528 1.6 16 1.6C8.0472 1.6 1.6 8.0472 1.6 16C1.6 23.9528 8.0472 30.4 16 30.4ZM16 32C24.8368 32 32 24.8368 32 16C32 7.1632 24.8368 0 16 0C7.1632 0 0 7.1632 0 16C0 24.8368 7.1632 32 16 32Z" fill="#182850"/>
<path d="M6.3999 25.304C6.3999 24.4776 7.0175 23.7792 7.8399 23.688C14.0119 23.0048 18.0159 23.0664 24.1743 23.7032C24.4818 23.7355 24.7733 23.8567 25.0131 24.0519C25.2529 24.2471 25.4307 24.5079 25.5247 24.8025C25.6187 25.0971 25.6249 25.4127 25.5425 25.7107C25.4601 26.0088 25.2927 26.2764 25.0607 26.4808C17.7927 32.816 13.6391 32.7288 6.9119 26.4872C6.5839 26.1832 6.3999 25.7504 6.3999 25.304Z" fill="#182850"/>
<path fill-rule="evenodd" clip-rule="evenodd" d="M24.0921 24.4985C17.9825 23.8665 14.0361 23.8073 7.9273 24.4833C7.72622 24.5067 7.54084 24.6035 7.40666 24.7551C7.27249 24.9067 7.19894 25.1025 7.2001 25.3049C7.2001 25.5337 7.2953 25.7505 7.4561 25.9009C10.7905 28.9937 13.3169 30.3913 15.7865 30.4001C18.2649 30.4089 20.9273 29.0225 24.5353 25.8785C24.6499 25.7765 24.7324 25.6434 24.7728 25.4953C24.8132 25.3473 24.8097 25.1907 24.7628 25.0446C24.7158 24.8985 24.6274 24.7692 24.5084 24.6724C24.3893 24.5756 24.2447 24.5147 24.0921 24.4985ZM7.7521 22.8929C13.9889 22.2025 18.0513 22.2649 24.2577 22.9073C24.7203 22.9556 25.1589 23.1377 25.5196 23.4314C25.8803 23.7251 26.1476 24.1176 26.2887 24.5608C26.4298 25.0041 26.4386 25.4788 26.314 25.927C26.1894 26.3752 25.9369 26.7773 25.5873 27.0841C21.9273 30.2745 18.8793 32.0121 15.7817 32.0001C12.6753 31.9889 9.7617 30.2217 6.3689 27.0737C6.12598 26.8475 5.93234 26.5735 5.80006 26.269C5.66778 25.9646 5.59971 25.6361 5.6001 25.3041C5.59894 24.7077 5.81786 24.1317 6.21495 23.6867C6.61204 23.2416 7.15937 22.9595 7.7521 22.8929Z" fill="#182850"/>
<path d="M22.4001 12.8001C22.4001 14.4975 21.7258 16.1254 20.5256 17.3256C19.3253 18.5259 17.6975 19.2001 16.0001 19.2001C14.3027 19.2001 12.6748 18.5259 11.4746 17.3256C10.2744 16.1254 9.6001 14.4975 9.6001 12.8001C9.6001 11.1028 10.2744 9.4749 11.4746 8.27466C12.6748 7.07443 14.3027 6.40015 16.0001 6.40015C17.6975 6.40015 19.3253 7.07443 20.5256 8.27466C21.7258 9.4749 22.4001 11.1028 22.4001 12.8001Z" fill="#182850"/>
<path fill-rule="evenodd" clip-rule="evenodd" d="M16.0001 17.6001C17.2731 17.6001 18.494 17.0944 19.3942 16.1943C20.2944 15.2941 20.8001 14.0732 20.8001 12.8001C20.8001 11.5271 20.2944 10.3062 19.3942 9.40603C18.494 8.50586 17.2731 8.00015 16.0001 8.00015C14.7271 8.00015 13.5062 8.50586 12.606 9.40603C11.7058 10.3062 11.2001 11.5271 11.2001 12.8001C11.2001 14.0732 11.7058 15.2941 12.606 16.1943C13.5062 17.0944 14.7271 17.6001 16.0001 17.6001ZM16.0001 19.2001C17.6975 19.2001 19.3253 18.5259 20.5256 17.3256C21.7258 16.1254 22.4001 14.4975 22.4001 12.8001C22.4001 11.1028 21.7258 9.4749 20.5256 8.27466C19.3253 7.07443 17.6975 6.40015 16.0001 6.40015C14.3027 6.40015 12.6748 7.07443 11.4746 8.27466C10.2744 9.4749 9.6001 11.1028 9.6001 12.8001C9.6001 14.4975 10.2744 16.1254 11.4746 17.3256C12.6748 18.5259 14.3027 19.2001 16.0001 19.2001Z" fill="#182850"/>
</svg>
