<svg width="32" height="32" viewBox="0 0 32 32" fill="none" xmlns="http://www.w3.org/2000/svg">
<path d="M16.816 12.784C16.816 10.144 14.656 7.984 12.016 7.984C9.376 7.984 7.216 10.144 7.216 12.784C7.216 15.424 9.376 17.584 12.016 17.584C14.656 17.584 16.816 15.424 16.816 12.784ZM12.016 14.384C11.136 14.384 10.416 13.664 10.416 12.784C10.416 11.904 11.136 11.184 12.016 11.184C12.896 11.184 13.616 11.904 13.616 12.784C13.616 13.664 12.896 14.384 12.016 14.384ZM22.416 17.584C24.192 17.584 25.616 16.16 25.616 14.384C25.616 12.608 24.192 11.184 22.416 11.184C20.64 11.184 19.2 12.608 19.216 14.384C19.216 16.16 20.64 17.584 22.416 17.584ZM16 0C7.168 0 0 7.168 0 16C0 24.832 7.168 32 16 32C24.832 32 32 24.832 32 16C32 7.168 24.832 0 16 0ZM6.16 24.176C7.248 23.312 9.792 22.4 12.016 22.4C12.128 22.4 12.256 22.416 12.384 22.416C12.768 21.392 13.456 20.352 14.464 19.44C13.6567 19.2853 12.8378 19.1997 12.016 19.184C9.936 19.184 6.592 19.904 4.448 21.472C3.648 19.808 3.2 17.952 3.2 15.984C3.2 8.928 8.944 3.184 16 3.184C23.056 3.184 28.8 8.928 28.8 15.984C28.8 17.904 28.368 19.728 27.6 21.376C26 20.432 23.824 19.984 22.416 19.984C19.984 19.984 15.216 21.28 15.216 24.304V28.752C13.473 28.6529 11.7692 28.1954 10.211 27.408C8.65281 26.6206 7.27376 25.5204 6.16 24.176Z" fill="#182850"/>
</svg>
